# File created by Blade
# Date/Time:  Wed Jan 21 16:33:30 2015
# Frame Rate: 120.000 fps
#------------------------------------------------------
:FULLY-SPECIFIED
:DEGREES
573
root 25.546503 8.057038 -24.570460 -67.566395 95.247016 36.788603
Spine -2.063828 -4.298562 -2.872295
Head 37.584601 1.688104 -6.393841
LeftShoulder 2.527096 -48.356860 16.070467
LeftArm 45.776666 -51.328137 -66.650014
LeftForeArm 27.506463 -0.000000 139.161802
LeftHand 2.583056 -0.000000 85.536337
LeftHandThumb1 -26.253704 0.000000 33.147579
RightShoulder -1.692671 10.765512 -15.976695
RightArm 95.298355 54.911402 114.274662
RightForeArm -74.822961 -0.000000 138.234333
RightHand 1.127077 0.000000 -75.592232
RightHandThumb1 -24.326973 -0.000000 -32.862282
LeftUpLeg -21.017485 -9.476161 1.100717
LeftLeg 137.706954 -0.000000 -0.000000
LeftFoot -35.957642 27.834259 -6.555180
LeftToeBase 24.751468 -0.000000 -0.000000
RightUpLeg -17.992578 11.648836 -10.694971
RightLeg 137.400667 -0.000000 -0.000000
RightFoot -39.257909 -27.985356 13.943591
RightToeBase 21.099597 -0.000000 -0.000000
574
root 25.524343 8.437975 -24.557996 -71.187115 94.883912 33.380623
Spine -3.408348 -4.099436 -2.585012
Head 38.558712 1.966087 -6.293294
LeftShoulder 2.516671 -48.203651 16.504683
LeftArm 45.141903 -50.875237 -67.024475
LeftForeArm 27.351142 -0.000000 139.050935
LeftHand 2.635321 -0.000000 84.794701
LeftHandThumb1 -26.253704 0.000000 33.147579
RightShoulder -1.440259 10.365820 -16.572835
RightArm 94.321586 54.377452 113.941375
RightForeArm -74.424301 0.000000 138.004346
RightHand 1.525666 -0.000000 -75.910912
RightHandThumb1 -24.326973 -0.000000 -32.862282
LeftUpLeg -18.651801 -9.025865 1.190522
LeftLeg 136.776437 -0.000000 -0.000000
LeftFoot -36.917214 27.850291 -6.570545
LeftToeBase 24.471195 -0.000000 -0.000000
RightUpLeg -16.158736 11.770054 -10.083554
RightLeg 136.598896 -0.000000 -0.000000
RightFoot -39.763608 -28.648255 13.969775
RightToeBase 21.437774 -0.000000 -0.000000
575
root 25.512922 8.820088 -24.542938 -76.445896 94.494056 28.224910
Spine -4.926147 -3.714539 -2.233192
Head 39.400180 2.109482 -6.335785
LeftShoulder 2.870124 -48.443816 16.568542
LeftArm 43.898419 -50.344495 -66.647660
LeftForeArm 27.224049 0.000000 138.774909
LeftHand 2.476106 -0.000000 84.281354
LeftHandThumb1 -26.253704 0.000000 33.147579
RightShoulder -1.190495 10.239990 -17.209316
RightArm 92.992993 54.029669 113.304624
RightForeArm -74.044620 -0.000000 137.640013
RightHand 1.945968 -0.000000 -76.148899
RightHandThumb1 -24.326973 -0.000000 -32.862282
LeftUpLeg -16.448405 -8.429251 1.328672
LeftLeg 135.821290 -0.000000 -0.000000
LeftFoot -37.974906 27.825084 -6.818847
LeftToeBase 24.317177 -0.000000 -0.000000
RightUpLeg -14.503021 11.995006 -9.525360
RightLeg 135.767802 -0.000000 -0.000000
RightFoot -40.360507 -29.389100 14.150863
RightToeBase 21.471803 -0.000000 -0.000000
576
root 25.518279 9.199196 -24.522693 -81.815568 94.111346 22.804340
Spine -6.603855 -3.463329 -1.860027
Head 39.978738 2.226473 -6.283921
LeftShoulder 3.019018 -48.553367 16.889792
LeftArm 42.789719 -49.824495 -66.366104
LeftForeArm 27.065863 -0.000000 138.391497
LeftHand 2.447491 0.000000 83.975363
LeftHandThumb1 -26.253704 0.000000 33.147579
RightShoulder -0.796295 11.063519 -17.693440
RightArm 90.403716 54.159807 111.469424
RightForeArm -73.677171 0.000000 137.097841
RightHand 2.207195 -0.000000 -76.167821
RightHandThumb1 -24.326973 -0.000000 -32.862282
LeftUpLeg -14.510436 -7.844007 1.600750
LeftLeg 134.917027 -0.000000 -0.000000
LeftFoot -38.950412 27.817668 -7.117754
LeftToeBase 24.201076 -0.000000 -0.000000
RightUpLeg -13.037090 12.174472 -8.973450
RightLeg 134.948612 -0.000000 -0.000000
RightFoot -40.896045 -30.114717 14.345177
RightToeBase 21.363088 -0.000000 -0.000000
577
root 25.528757 9.577690 -24.508720 -88.519664 93.827395 15.941228
Spine -8.381836 -3.154209 -1.547044
Head 40.344236 2.235311 -6.229346
LeftShoulder 3.160146 -48.616510 17.252074
LeftArm 41.690552 -49.355743 -66.048701
LeftForeArm 26.917105 0.000000 137.964808
LeftHand 2.263297 -0.000000 83.612199
LeftHandThumb1 -26.253704 0.000000 33.147579
RightShoulder -0.442899 11.902812 -18.130771
RightArm 87.948158 54.348014 109.805807
RightForeArm -73.239905 -0.000000 136.431758
RightHand 2.632574 -0.000000 -76.229007
RightHandThumb1 -24.326973 -0.000000 -32.862282
LeftUpLeg -12.721945 -7.214950 1.820350
LeftLeg 133.974671 -0.000000 -0.000000
LeftFoot -39.768980 28.009806 -7.399391
LeftToeBase 23.909652 -0.000000 -0.000000
RightUpLeg -11.708166 12.398615 -8.572054
RightLeg 134.087638 -0.000000 -0.000000
RightFoot -41.280688 -30.630047 14.560967
RightToeBase 21.661921 -0.000000 -0.000000
578
root 25.544819 9.956672 -24.496623 -94.238420 93.643289 10.065608
Spine -10.117814 -2.969057 -1.318563
Head 40.554057 2.198323 -6.016608
LeftShoulder 3.151627 -48.277655 17.639993
LeftArm 41.131467 -48.810618 -65.899630
LeftForeArm 26.948647 -0.000000 137.346515
LeftHand 2.073218 -0.000000 83.526888
LeftHandThumb1 -26.253704 0.000000 33.147579
RightShoulder -0.082282 12.456859 -18.473516
RightArm 85.839225 54.557390 108.315515
RightForeArm -72.668539 -0.000000 135.697200
RightHand 2.956062 -0.000000 -76.342187
RightHandThumb1 -24.326973 -0.000000 -32.862282
LeftUpLeg -11.030778 -6.728886 2.006825
LeftLeg 133.005275 -0.000000 -0.000000
LeftFoot -40.474034 28.363342 -7.781534
LeftToeBase 23.859166 -0.000000 -0.000000
RightUpLeg -10.358082 12.508542 -8.233445
RightLeg 133.220115 -0.000000 -0.000000
RightFoot -41.441250 -30.877035 14.563152
RightToeBase 21.608295 -0.000000 -0.000000
